<?xml version="1.0" encoding="utf-8"?>
<!-- Generator: Adobe Illustrator 22.1.0, SVG Export Plug-In . SVG Version: 6.00 Build 0)  -->
<svg version="1.1" id="Layer_1" xmlns="http://www.w3.org/2000/svg" xmlns:xlink="http://www.w3.org/1999/xlink" x="0px" y="0px"
	 viewBox="0 0 216 216" enable-background="new 0 0 216 216" xml:space="preserve">
<path fill="#FBD7AD" d="M202.225,9.97c-6.174-5.37-16.903-1.13-21.229,0.58c-10.821,4.278-17.121,12.042-18.376,13.565
	c-25.386,30.829-74.84,67.376-99.085,103.171c-4.688,6.922-9.422,14.494-9.422,14.494c-1.621,2.594-6.078,9.777-12.339,20.932
	c-7.912,14.098-11.848,21.172-10.836,22.376c3.685,4.388,29.366-9.751,48.469-24.413c6.478-4.972,10.986-9.072,12.234-10.207
	c6.726-6.111,53.106-48.098,103.667-102.687c3.027-3.269,11.75-12.362,11.399-24.446C206.612,20.064,206.424,13.623,202.225,9.97z"
	/>
<path fill="#EDD06B" d="M73.887,33.946l9.768-9.873c6.087,1.557,9.943,5.372,11.565,11.442L75.963,54.978
	c-40.825,33.553-44.68,29.739-11.565-11.442L73.887,33.946z"/>
<polygon fill="#FBD7AD" points="54.099,147.711 16.748,141.457 11.976,141.015 4.441,148.631 40.935,169.479 "/>
<polygon fill="#FBD7AD" points="68.76,161.656 75.673,199.195 76.197,203.993 68.662,211.609 47.083,175.003 "/>
<path fill="#D458A0" stroke="#D458A0" stroke-miterlimit="10" d="M22.604,193.128l39.86-36.569l13.07-13.211
	c0.075-0.261,0.184-0.772,0.052-1.387c-0.052-0.241-0.196-0.906-0.747-1.369c-0.929-0.778-2.242-0.335-2.326-0.305L22.604,193.128z"
	/>
<path fill="#D458A0" d="M162.307,35.689l-3.566-3.528c-0.267-0.264-0.269-0.698-0.005-0.965l0.315-0.319
	c0.264-0.267,0.698-0.269,0.965-0.005l3.566,3.528c0.267,0.264,0.269,0.698,0.005,0.965l-0.315,0.319
	C163.008,35.951,162.574,35.953,162.307,35.689z"/>
<path fill="#D458A0" d="M155.297,42.775l-3.566-3.528c-0.267-0.264-0.269-0.698-0.005-0.965l0.315-0.319
	c0.264-0.267,0.698-0.269,0.965-0.005l3.566,3.528c0.267,0.264,0.269,0.698,0.005,0.965l-0.315,0.319
	C155.998,43.036,155.564,43.039,155.297,42.775z"/>
<polygon fill="#D458A0" points="41.058,159.274 15.41,147.674 7.724,148.196 13.585,150.807 37.766,164.534 "/>
<polygon fill="#D458A0" points="56.481,173.736 67.967,198.875 67.452,206.491 64.866,200.746 51.277,177.104 "/>
<path fill="#D458A0" d="M149.402,48.733l-3.566-3.528c-0.267-0.264-0.269-0.698-0.005-0.965l0.315-0.319
	c0.264-0.267,0.698-0.269,0.965-0.005l3.566,3.528c0.267,0.264,0.269,0.698,0.005,0.965l-0.315,0.319
	C150.103,48.995,149.669,48.997,149.402,48.733z"/>
<path fill="#D458A0" d="M142.392,55.819l-3.566-3.528c-0.267-0.264-0.269-0.698-0.005-0.965l0.315-0.319
	c0.264-0.267,0.698-0.269,0.965-0.005l3.566,3.528c0.267,0.264,0.269,0.698,0.005,0.965l-0.315,0.319
	C143.093,56.08,142.659,56.083,142.392,55.819z"/>
<path fill="#D458A0" d="M134.316,63.982l-3.566-3.528c-0.267-0.264-0.269-0.698-0.005-0.965l0.315-0.319
	c0.264-0.267,0.698-0.269,0.965-0.005l3.566,3.528c0.267,0.264,0.269,0.698,0.005,0.965l-0.315,0.319
	C135.017,64.243,134.583,64.246,134.316,63.982z"/>
<path fill="#D458A0" d="M127.306,71.067l-3.566-3.528c-0.267-0.264-0.269-0.698-0.005-0.965l0.315-0.319
	c0.264-0.267,0.698-0.269,0.965-0.005l3.566,3.528c0.267,0.264,0.269,0.698,0.005,0.965l-0.315,0.319
	C128.007,71.329,127.572,71.331,127.306,71.067z"/>
<path fill="#D458A0" d="M120.884,77.558l-3.566-3.528c-0.267-0.264-0.269-0.698-0.005-0.965l0.315-0.319
	c0.264-0.267,0.698-0.269,0.965-0.005l3.566,3.528c0.267,0.264,0.269,0.698,0.005,0.965l-0.315,0.319
	C121.585,77.82,121.151,77.822,120.884,77.558z"/>
<path fill="#D458A0" d="M113.874,84.644l-3.566-3.528c-0.267-0.264-0.269-0.698-0.005-0.965l0.315-0.319
	c0.264-0.267,0.698-0.269,0.965-0.005l3.566,3.528c0.267,0.264,0.269,0.698,0.005,0.965l-0.315,0.319
	C114.574,84.905,114.14,84.908,113.874,84.644z"/>
<path fill="#D458A0" d="M107.501,91.085l-3.566-3.528c-0.267-0.264-0.269-0.698-0.005-0.965l0.315-0.319
	c0.264-0.267,0.698-0.269,0.965-0.005l3.566,3.528c0.267,0.264,0.269,0.698,0.005,0.965l-0.315,0.319
	C108.202,91.347,107.768,91.349,107.501,91.085z"/>
<path fill="#D458A0" d="M100.491,98.171l-3.566-3.528c-0.267-0.264-0.269-0.698-0.005-0.965l0.315-0.319
	c0.264-0.267,0.698-0.269,0.965-0.005l3.566,3.528c0.267,0.264,0.269,0.698,0.005,0.965l-0.315,0.319
	C101.191,98.432,100.757,98.435,100.491,98.171z"/>
<path fill="#D458A0" d="M92.628,106.119l-3.566-3.528c-0.267-0.264-0.269-0.698-0.005-0.965l0.315-0.319
	c0.264-0.267,0.698-0.269,0.965-0.005l3.566,3.528c0.267,0.264,0.269,0.698,0.005,0.965l-0.315,0.319
	C93.328,106.38,92.894,106.382,92.628,106.119z"/>
<path fill="#D458A0" d="M85.617,113.204l-3.566-3.528c-0.267-0.264-0.269-0.698-0.005-0.965l0.315-0.319
	c0.264-0.267,0.698-0.269,0.965-0.005l3.566,3.528c0.267,0.264,0.269,0.698,0.005,0.965l-0.315,0.319
	C86.318,113.466,85.884,113.468,85.617,113.204z"/>
<path fill="#D458A0" d="M182.172,55.343l-3.566-3.528c-0.267-0.264-0.269-0.698-0.005-0.965l0.315-0.319
	c0.264-0.267,0.698-0.269,0.965-0.005l3.566,3.528c0.267,0.264,0.269,0.698,0.005,0.965l-0.315,0.319
	C182.873,55.604,182.439,55.607,182.172,55.343z"/>
<path fill="#D458A0" d="M175.162,62.428l-3.566-3.528c-0.267-0.264-0.269-0.698-0.005-0.965l0.315-0.319
	c0.264-0.267,0.698-0.269,0.965-0.005l3.566,3.528c0.267,0.264,0.269,0.698,0.005,0.965l-0.315,0.319
	C175.863,62.69,175.429,62.692,175.162,62.428z"/>
<path fill="#D458A0" d="M169.267,68.387l-3.566-3.528c-0.267-0.264-0.269-0.698-0.005-0.965l0.315-0.319
	c0.264-0.267,0.698-0.269,0.965-0.005l3.566,3.528c0.267,0.264,0.269,0.698,0.005,0.965l-0.315,0.319
	C169.968,68.648,169.534,68.65,169.267,68.387z"/>
<path fill="#D458A0" d="M162.257,75.472l-3.566-3.528c-0.267-0.264-0.269-0.698-0.005-0.965l0.315-0.319
	c0.264-0.267,0.698-0.269,0.965-0.005l3.566,3.528c0.267,0.264,0.269,0.698,0.005,0.965l-0.315,0.319
	C162.958,75.734,162.524,75.736,162.257,75.472z"/>
<path fill="#D458A0" d="M154.181,83.635l-3.566-3.528c-0.267-0.264-0.269-0.698-0.005-0.965l0.315-0.319
	c0.264-0.267,0.698-0.269,0.965-0.005l3.566,3.528c0.267,0.264,0.269,0.698,0.005,0.965l-0.315,0.319
	C154.881,83.897,154.447,83.899,154.181,83.635z"/>
<path fill="#D458A0" d="M147.17,90.721l-3.566-3.528c-0.267-0.264-0.269-0.698-0.005-0.965l0.315-0.319
	c0.264-0.267,0.698-0.269,0.965-0.005l3.566,3.528c0.267,0.264,0.269,0.698,0.005,0.965l-0.315,0.319
	C147.871,90.982,147.437,90.985,147.17,90.721z"/>
<path fill="#D458A0" d="M140.749,97.212l-3.566-3.528c-0.267-0.264-0.269-0.698-0.005-0.965l0.315-0.319
	c0.264-0.267,0.698-0.269,0.965-0.005l3.566,3.528c0.267,0.264,0.269,0.698,0.005,0.965l-0.315,0.319
	C141.449,97.473,141.015,97.476,140.749,97.212z"/>
<path fill="#D458A0" d="M133.738,104.297l-3.566-3.528c-0.267-0.264-0.269-0.698-0.005-0.965l0.315-0.319
	c0.264-0.267,0.698-0.269,0.965-0.005l3.566,3.528c0.267,0.264,0.269,0.698,0.005,0.965l-0.315,0.319
	C134.439,104.559,134.005,104.561,133.738,104.297z"/>
<path fill="#D458A0" d="M127.366,110.739l-3.566-3.528c-0.267-0.264-0.269-0.698-0.005-0.965l0.315-0.319
	c0.264-0.267,0.698-0.269,0.965-0.005l3.566,3.528c0.267,0.264,0.269,0.698,0.005,0.965l-0.315,0.319
	C128.066,111,127.632,111.002,127.366,110.739z"/>
<path fill="#D458A0" d="M120.355,117.824l-3.566-3.528c-0.267-0.264-0.269-0.698-0.005-0.965l0.315-0.319
	c0.264-0.267,0.698-0.269,0.965-0.005l3.566,3.528c0.267,0.264,0.269,0.698,0.005,0.965l-0.315,0.319
	C121.056,118.086,120.622,118.088,120.355,117.824z"/>
<path fill="#D458A0" d="M112.492,125.772l-3.566-3.528c-0.267-0.264-0.269-0.698-0.005-0.965l0.315-0.319
	c0.264-0.267,0.698-0.269,0.965-0.005l3.566,3.528c0.267,0.264,0.269,0.698,0.005,0.965l-0.315,0.319
	C113.193,126.033,112.759,126.036,112.492,125.772z"/>
<path fill="#D458A0" d="M105.482,132.857l-3.566-3.528c-0.267-0.264-0.269-0.698-0.005-0.965l0.315-0.319
	c0.264-0.267,0.698-0.269,0.965-0.005l3.566,3.528c0.267,0.264,0.269,0.698,0.005,0.965l-0.315,0.319
	C106.183,133.119,105.749,133.121,105.482,132.857z"/>
<path fill="#D458A0" d="M174.018,23.853l-3.566-3.528c-0.267-0.264-0.269-0.698-0.005-0.965l0.315-0.319
	c0.264-0.267,0.698-0.269,0.965-0.005l3.566,3.528c0.267,0.264,0.269,0.698,0.005,0.965l-0.315,0.319
	C174.718,24.115,174.284,24.117,174.018,23.853z"/>
<path fill="#D458A0" d="M168.123,29.812l-3.566-3.528c-0.267-0.264-0.269-0.698-0.005-0.965L164.867,25
	c0.264-0.267,0.698-0.269,0.965-0.005l3.566,3.528c0.267,0.264,0.269,0.698,0.005,0.965l-0.315,0.319
	C168.823,30.073,168.389,30.075,168.123,29.812z"/>
<path fill="#D458A0" d="M193.245,44.151l-3.566-3.528c-0.267-0.264-0.269-0.698-0.005-0.965l0.315-0.319
	c0.264-0.267,0.698-0.269,0.965-0.005l3.566,3.528c0.267,0.264,0.269,0.698,0.005,0.965l-0.315,0.319
	C193.946,44.412,193.512,44.415,193.245,44.151z"/>
<path fill="#D458A0" d="M187.35,50.109l-3.566-3.528c-0.267-0.264-0.269-0.698-0.005-0.965l0.315-0.319
	c0.264-0.267,0.698-0.269,0.965-0.005l3.566,3.528c0.267,0.264,0.269,0.698,0.005,0.965l-0.315,0.319
	C188.051,50.371,187.617,50.373,187.35,50.109z"/>
<path fill="#D458A0" d="M195.861,13.837c0.049,0.358-0.312,0.719-0.356,0.763c-0.361,0.353-0.855,0.364-1.159,0.367
	c-0.678,0.006-1.154-0.223-1.484-0.352c-0.896-0.351-1.653-0.333-2.885-0.305c-1.521,0.035-2.317,0.054-3.161,0.537
	c-0.343,0.197-0.714,0.482-1.199,0.407c-0.572-0.089-0.889-0.615-0.925-0.676c-0.248-0.425-0.308-1.045-0.008-1.442
	c0.26-0.343,0.699-0.397,1.159-0.447c2.466-0.267,2.962-0.256,2.962-0.256c3.31,0.071,2.943,0,3.444,0.062
	C193.012,12.589,195.735,12.924,195.861,13.837z"/>
<path fill="#D458A0" d="M201.174,19.094c-0.357-0.044-0.714,0.321-0.757,0.366c-0.349,0.365-0.357,0.857-0.357,1.16
	c-0.001,0.675,0.231,1.147,0.361,1.473c0.356,0.888,0.344,1.642,0.324,2.87c-0.025,1.515-0.037,2.309-0.513,3.157
	c-0.194,0.345-0.475,0.718-0.397,1.201c0.092,0.569,0.619,0.877,0.68,0.912c0.425,0.241,1.044,0.292,1.436-0.013
	c0.34-0.264,0.391-0.702,0.437-1.161c0.249-2.46,0.235-2.955,0.234-2.955c-0.094-3.297-0.021-2.932-0.085-3.43
	C202.438,21.914,202.085,19.206,201.174,19.094z"/>
<path fill="#EDD06B" d="M104.549,48.368l9.768-9.873c6.087,1.557,9.943,5.372,11.565,11.442l-19.256,19.463
	C65.801,102.954,61.946,99.14,95.06,57.959L104.549,48.368z"/>
<path fill="#EDD06B" d="M159.714,101.672l9.768-9.873c6.087,1.557,9.943,5.372,11.565,11.442l-19.256,19.463
	c-40.825,33.553-44.68,29.739-11.565-11.442L159.714,101.672z"/>
<path fill="#EDD06B" d="M168.858,137.487l9.768-9.873c6.087,1.557,9.943,5.372,11.565,11.442l-19.256,19.463
	c-40.825,33.553-44.68,29.739-11.565-11.442L168.858,137.487z"/>
<path fill="#FBD7AD" d="M131.636,58.843L21.001,33.675c-2.006-0.481-3.561-0.24-4.405-0.037c-2.594,0.625-4.31,2.299-5.432,3.392
	c-0.647,0.631-1.13,1.21-1.455,1.626l80.049,42.347l9.478,8.748L131.636,58.843z"/>
<path fill="#FBD7AD" d="M156.371,80.123l26.062,113.352c0.498,2.056,0.261,3.632,0.058,4.486c-0.622,2.624-2.311,4.325-3.415,5.438
	c-0.637,0.641-1.222,1.118-1.643,1.437l-43.34-82.682l-8.918-9.893L156.371,80.123z"/>
<polygon fill="#D458A0" points="105.936,75.235 95.278,67.587 44.228,47.024 39.693,51.491 89.629,77.044 99.324,84.933 "/>
<polygon fill="#D458A0" points="141.291,105.307 149.352,116.259 171.651,168.589 167.246,173.188 139.913,121.956 131.636,111.986 
	"/>
</svg>
