<?xml version="1.0" encoding="utf-8"?>
<!-- Generator: Adobe Illustrator 22.1.0, SVG Export Plug-In . SVG Version: 6.00 Build 0)  -->
<svg version="1.1" id="Layer_1" xmlns="http://www.w3.org/2000/svg" xmlns:xlink="http://www.w3.org/1999/xlink" x="0px" y="0px"
	 viewBox="0 0 216 216" enable-background="new 0 0 216 216" xml:space="preserve">
<g>
	<path fill="#D458A0" stroke="#F4D8A8" stroke-miterlimit="10" d="M106.09,52.505l24.642,0.308l4.588,4.218l3.786,4.368l2.521,9.554
		l3.04,0.038l0.024-1.92l3.359,0.122l2.32,0.029l0.031-2.48l0.013-1.04l-1.361,0.063l-0.057-1.841
		c0.336-0.077,0.835-0.187,1.444-0.302c1.719-0.324,4.178-0.658,9.53-0.601c1.675,0.018,3.848,0.077,6.398,0.24l2.075,0.426
		l-0.023,1.84l-1.44-0.018l-0.113,2.639l4.397,0.295l-0.041,3.28l4.16,0.052l-0.128,10.241l-0.09,7.2l1.96,0.024l-0.603,48.243
		l-0.857,1.31c0.157,0.471,0.796,2.537-0.288,3.837c-0.505,0.605-1.186,0.808-1.692,0.939c-2.555,0.662-5.309,0.714-7.329,0.629
		l-20.642-0.242l-98.647-1.233c-0.923,0.049-2.295,0.077-3.96-0.065c-2.507-0.214-2.932-0.577-3.111-0.759
		c-0.269-0.274-0.523-0.688-0.911-3.972c-0.099-0.84-0.169-1.543-0.215-2.043l0.6-48.003l0.028-2.28l1.32,0.016l0.183-14.641
		l3.602-0.075l4.202-0.067l46.208,0.217l1.782-8.14L106.09,52.505z"/>
	
		<rect x="103.002" y="61.902" transform="matrix(0.9999 0.0125 -0.0125 0.9999 0.8366 -1.4801)" fill="#D458A0" stroke="#FBD7AD" stroke-miterlimit="10" width="31.676" height="8.587"/>
	<path fill="none" stroke="#FBD7AD" stroke-miterlimit="10" d="M69.256,100c-0.297-0.482-0.616-0.999-1.234-1.186
		c-0.94-0.285-1.793,0.43-1.852,0.482c-0.576,0.499-0.737,1.194-0.832,1.821c-0.316,2.086,1.718,22.545,1.998,23.215
		c0.466,1.116,0.995,2.382,2.217,2.972c1.152,0.556,2.333,0.227,2.812,0.093c0.335-0.094,2.302-0.682,3.168-2.712
		C76.502,122.41,69.615,100.582,69.256,100z"/>
	<circle fill="none" stroke="#FBD7AD" stroke-miterlimit="10" cx="71.462" cy="122.636" r="2.274"/>
	
		<rect x="47.698" y="75.337" transform="matrix(1 0.0044 -0.0044 1 0.3516 -0.2472)" fill="#FBD7AD" width="17.702" height="9.401"/>
	
		<rect x="83.657" y="71.666" transform="matrix(1 0.0044 -0.0044 1 0.4733 -0.4992)" fill="#FBD7AD" stroke="#D458A0" stroke-miterlimit="10" width="60.822" height="71.991"/>
	<g>
		
			<ellipse transform="matrix(0.0125 -0.9999 0.9999 0.0125 2.1069 223.1978)" fill="#1D998B" cx="114.056" cy="110.532" rx="39.782" ry="37.934"/>
		<circle fill="none" stroke="#FBD7AD" stroke-miterlimit="10" cx="114.056" cy="110.532" r="33.065"/>
		<circle fill="none" stroke="#FBD7AD" stroke-miterlimit="10" cx="114.056" cy="110.532" r="16.545"/>
		<polygon fill="#FBD7AD" points="105.762,104.613 105.777,103.413 104.469,102.436 103.496,103.504 		"/>
		<polygon fill="#FBD7AD" points="105.265,105.868 103.124,104.58 101.637,107.361 103.241,108.342 103.744,107.436 
			103.823,108.775 		"/>
	</g>
	<path fill="#F4D8A8" stroke="#D458A0" stroke-miterlimit="10" d="M88.298,73.414c0.031,0.333,0.481,6.238-4.298,9.821
		c-3.276,2.456-42.207,0.613-42.207,0.613l0.055-12.499l46.484,0.636L88.298,73.414z"/>
	
		<rect x="49.725" y="74.292" transform="matrix(1 0.0044 -0.0044 1 0.3424 -0.2473)" fill="#FBD7AD" stroke="#D458A0" stroke-miterlimit="10" width="13.666" height="7.296"/>
</g>
</svg>
