<?xml version="1.0" encoding="utf-8"?>
<!-- Generator: Adobe Illustrator 22.1.0, SVG Export Plug-In . SVG Version: 6.00 Build 0)  -->
<svg version="1.1" id="Layer_1" xmlns="http://www.w3.org/2000/svg" xmlns:xlink="http://www.w3.org/1999/xlink" x="0px" y="0px"
	 viewBox="0 0 216 216" enable-background="new 0 0 216 216" xml:space="preserve">
<g>
	<rect x="52.096" y="47.379" fill="#DEF1EF" width="121.881" height="108.35"/>
	<polygon fill="#FCD7AD" points="85.67,42.498 64.148,42.498 69.153,43.666 64.148,79.537 79.831,79.537 81.166,72.697 
		72.657,72.363 73.658,67.858 80.832,67.692 81.499,61.018 74.909,61.018 74.909,58.682 69.654,58.682 74.909,57.848 75.716,49.283 
		85.114,49.228 	"/>
	<path fill="#FCD7AD" d="M46.721,42.435l-9.759,1.499l10.038,0.324l-3.413,27.161c-0.097,0.749-0.308,1.182-0.633,1.3
		c-1.074,0.388-3.395-2.678-6.962-9.197l-1.683,4.698l-0.626,1.946c0.335,0.495,0.816,1.189,1.417,2.002
		c2.249,3.04,3.371,4.562,5.01,5.52c1.816,1.061,3.549,1.242,4.552,1.336c1.762,0.165,3.289,0.308,4.712-0.631
		c1.86-1.228,2.25-3.45,2.336-4.058l2.178-16.736l-4.819,0.74l4.486-2.909l0.966-9.767l3.484,0.205l0.094-3.406L46.721,42.435z"/>
	<polygon fill="#FCD7AD" points="97.352,42.498 87.898,42.498 97.352,43.82 97.352,47.379 105.917,47.379 100.689,79.537 
		108.252,79.537 110.811,59.058 106.25,58.836 111.019,58.154 112.396,47.184 119.32,47.184 119.32,42.498 	"/>
	<polygon fill="none" stroke="#0B0B0B" stroke-miterlimit="10" points="87.422,42.498 65.9,42.498 70.905,43.666 65.9,79.537 
		81.583,79.537 82.917,72.697 74.409,72.363 75.41,67.858 82.584,67.692 83.251,61.018 76.661,61.018 76.661,58.682 71.405,58.682 
		76.661,57.848 77.467,49.283 86.866,49.228 	"/>
	<polygon fill="none" stroke="#0B0B0B" stroke-miterlimit="10" points="99.104,42.498 89.65,42.498 99.104,43.82 99.104,47.379 
		107.668,47.379 102.441,79.537 110.004,79.537 112.562,59.058 108.002,58.836 112.771,58.154 114.147,47.184 121.071,47.184 
		121.071,42.498 	"/>
	<path fill="none" stroke="#0B0B0B" stroke-miterlimit="10" d="M48.473,42.435l-9.758,1.499l10.038,0.324L45.34,71.418
		c-0.097,0.749-0.308,1.182-0.633,1.3c-1.074,0.388-3.395-2.678-6.962-9.197l-1.683,4.698l-0.626,1.946
		c0.335,0.495,0.816,1.189,1.417,2.002c2.249,3.04,3.371,4.562,5.01,5.52c1.816,1.061,3.549,1.242,4.552,1.336
		c1.762,0.165,3.289,0.308,4.712-0.631c1.86-1.228,2.25-3.45,2.336-4.058l2.178-16.736l-4.819,0.74l4.486-2.909l0.966-9.767
		l3.484,0.205l0.094-3.406L48.473,42.435z"/>
	<polygon fill="none" stroke="#0B0B0B" stroke-miterlimit="10" points="88.882,42.498 67.359,42.498 72.365,43.666 67.359,79.537 
		83.043,79.537 84.377,72.697 75.868,72.363 76.869,67.858 84.044,67.692 84.711,61.018 78.121,61.018 78.121,58.682 72.865,58.682 
		78.121,57.848 78.927,49.283 88.326,49.228 	"/>
	<polygon fill="none" stroke="#0B0B0B" stroke-miterlimit="10" points="100.564,42.498 91.109,42.498 100.564,43.82 100.564,47.379 
		109.128,47.379 103.901,79.537 111.464,79.537 114.022,59.058 109.462,58.836 114.231,58.154 115.607,47.184 122.531,47.184 
		122.531,42.498 	"/>
	<path fill="none" stroke="#0B0B0B" stroke-miterlimit="10" d="M49.932,42.435l-9.758,1.499l10.038,0.324L46.8,71.418
		c-0.097,0.749-0.308,1.182-0.633,1.3c-1.074,0.388-3.395-2.678-6.962-9.197l-1.683,4.698l-0.626,1.946
		c0.335,0.495,0.816,1.189,1.417,2.002c2.249,3.04,3.371,4.562,5.01,5.52c1.816,1.061,3.549,1.242,4.552,1.336
		c1.762,0.165,3.289,0.308,4.712-0.631c1.86-1.228,2.25-3.45,2.336-4.058l2.178-16.736l-4.819,0.74l4.486-2.909l0.966-9.767
		l3.484,0.205l0.094-3.406L49.932,42.435z"/>
	<polygon fill="#D457A0" points="154.989,89.025 132.922,88.997 138.053,90.142 132.877,125.094 148.957,125.115 150.333,118.45 
		141.61,118.114 142.642,113.725 149.997,113.571 150.69,107.068 143.933,107.06 143.936,104.783 138.547,104.776 143.937,103.97 
		144.774,95.624 154.411,95.582 	"/>
	<polygon fill="#D457A0" points="163.528,88.991 153.834,88.978 163.526,90.278 163.522,93.747 172.303,93.758 166.903,125.092 
		174.658,125.102 177.306,105.147 172.631,104.924 177.521,104.266 178.946,93.577 186.045,93.586 186.051,89.019 	"/>
	<path fill="#D457A0" d="M120.074,101.179l7.356,0.009c0.074-0.979,0.134-2.447,0.005-4.228c-0.173-2.379-0.274-3.592-1.02-4.717
		c-1.248-1.881-3.343-2.533-4.102-2.769c-2.135-0.665-3.978-0.354-4.789-0.169l-22.921-1.004l18.3,2.95
		c-0.472,0.483-1.16,1.248-1.845,2.274c-0.869,1.301-1.801,3.123-2.96,10.403c-0.663,4.165-0.591,5.033-0.179,6.016
		c0.167,0.397,1.172,2.793,3.588,3.744c2.373,0.934,4.166-0.289,5.473,0.982c0.586,0.571,0.899,1.473,0.681,2.277
		c-0.283,1.043-1.44,1.845-2.91,1.948l-9.066-0.011l-2.232,6.826l11.461,0.014c0.416,0.058,1.086,0.114,1.882,0.002
		c4.08-0.574,6.63-4.894,7.536-7.795c0.437-1.4,1.068-3.417,0.178-5.691c-0.262-0.671-1.133-2.898-3.245-3.744
		c-1.76-0.705-3.491-0.095-5.13-1.47c-0.28-0.235-0.478-0.461-0.598-0.611l-0.127-0.691l-4.366,0.035l4.581-1.092l0.262-4.471
		c0,0,0.1-3.418,0.218-3.699c0.353-0.835,1.759-1.135,2.781-0.85c0.257,0.072,0.961,0.268,1.325,0.937
		C120.531,97.178,120.074,101.179,120.074,101.179z"/>
	<polygon fill="none" stroke="#000000" stroke-miterlimit="10" points="157.577,89.18 135.704,89.152 140.789,90.287 
		135.659,124.933 151.597,124.953 152.962,118.346 144.315,118.013 145.338,113.663 152.629,113.511 153.315,107.065 
		146.618,107.056 146.621,104.8 141.279,104.793 146.622,103.994 147.451,95.721 157.003,95.68 	"/>
	<polygon fill="none" stroke="#0D0D0D" stroke-miterlimit="10" points="165.989,89.146 156.381,89.133 165.988,90.422 
		165.983,93.86 174.687,93.871 169.335,124.93 177.022,124.94 179.647,105.16 175.012,104.939 179.86,104.287 181.272,93.692 
		188.309,93.7 188.314,89.174 	"/>
	<path fill="none" stroke="#0D0D0D" stroke-miterlimit="10" d="M123.003,101.235l7.291,0.009c0.074-0.97,0.133-2.425,0.005-4.19
		c-0.171-2.358-0.272-3.56-1.011-4.675c-1.237-1.864-3.313-2.511-4.066-2.745c-2.117-0.659-3.943-0.351-4.747-0.167L97.755,88.47
		l18.139,2.924c-0.468,0.479-1.15,1.237-1.829,2.254c-0.861,1.29-1.785,3.096-2.934,10.311c-0.657,4.128-0.586,4.988-0.177,5.963
		c0.165,0.394,1.161,2.769,3.556,3.711c2.352,0.926,4.13-0.287,5.425,0.974c0.581,0.566,0.891,1.461,0.675,2.257
		c-0.28,1.034-1.427,1.829-2.885,1.93l-8.987-0.011l-2.213,6.766l11.36,0.014c0.413,0.057,1.076,0.113,1.865,0.002
		c4.044-0.569,6.572-4.851,7.47-7.727c0.434-1.388,1.058-3.387,0.177-5.641c-0.26-0.665-1.123-2.872-3.217-3.711
		c-1.744-0.699-3.46-0.094-5.085-1.457c-0.278-0.233-0.473-0.457-0.593-0.605l-0.126-0.685l-4.327,0.035l4.541-1.082l0.26-4.432
		c0,0,0.099-3.388,0.217-3.666c0.349-0.827,1.744-1.125,2.756-0.843c0.255,0.071,0.952,0.265,1.313,0.928
		C123.456,97.269,123.003,101.235,123.003,101.235z"/>
	<polygon fill="none" stroke="#000000" stroke-miterlimit="10" points="156.541,89.179 134.668,89.151 139.753,90.286 
		134.623,124.931 150.561,124.951 151.926,118.345 143.279,118.012 144.302,113.661 151.593,113.509 152.28,107.063 
		145.582,107.055 145.585,104.798 140.244,104.792 145.586,103.993 146.416,95.72 155.968,95.678 	"/>
	<polygon fill="none" stroke="#0D0D0D" stroke-miterlimit="10" points="164.953,89.144 155.345,89.132 164.952,90.421 
		164.948,93.859 173.651,93.87 168.3,124.929 175.986,124.938 178.611,105.158 173.977,104.938 178.824,104.286 180.236,93.69 
		187.273,93.699 187.279,89.172 	"/>
	<path fill="none" stroke="#0D0D0D" stroke-miterlimit="10" d="M121.968,101.233l7.291,0.009c0.074-0.97,0.133-2.425,0.005-4.19
		c-0.171-2.358-0.272-3.56-1.011-4.675c-1.237-1.864-3.313-2.511-4.066-2.745c-2.117-0.659-3.943-0.351-4.747-0.167L96.72,88.469
		l18.139,2.924c-0.468,0.479-1.15,1.237-1.829,2.254c-0.861,1.29-1.785,3.096-2.934,10.311c-0.657,4.128-0.586,4.988-0.177,5.963
		c0.165,0.394,1.161,2.769,3.556,3.711c2.352,0.926,4.13-0.287,5.425,0.974c0.581,0.566,0.891,1.461,0.675,2.257
		c-0.28,1.034-1.427,1.829-2.885,1.93l-8.987-0.011l-2.213,6.766l11.36,0.014c0.413,0.057,1.076,0.113,1.865,0.002
		c4.044-0.569,6.572-4.851,7.47-7.727c0.434-1.388,1.058-3.387,0.177-5.641c-0.26-0.665-1.123-2.872-3.217-3.711
		c-1.744-0.699-3.46-0.094-5.085-1.457c-0.278-0.233-0.473-0.457-0.593-0.605l-0.126-0.685l-4.327,0.035l4.541-1.082l0.26-4.432
		c0,0,0.099-3.388,0.217-3.666c0.349-0.827,1.744-1.125,2.756-0.843c0.255,0.071,0.952,0.265,1.313,0.928
		C122.42,97.268,121.968,101.233,121.968,101.233z"/>
	<path fill="#1C998B" d="M49.422,135.69H35.816l13.607,3.438c-0.944,0.341-2.247,0.916-3.617,1.895
		c-4.759,3.401-6.149,8.713-6.545,10.851c-1.547,8.359,3.525,14.605,4.134,15.329c1.069,1.272,4.239,4.937,9.645,6.028
		c5.49,1.108,13.383-0.42,16.363-6.373v-9.99v-3.1h-7.406l0.172,10.851c-0.397,0.314-0.972,0.708-1.722,1.033
		c-3.587,1.555-8.598,0.532-11.54-2.756c-2.272-2.539-2.543-5.567-2.584-6.717l-4.134-0.344l4.249-0.689
		c-0.098-0.764-0.163-1.837,0-3.1c0.11-0.857,0.39-2.849,1.78-4.937c0.45-0.676,1.899-2.688,4.593-3.904
		c1.059-0.478,2.084-0.644,4.134-0.976c3.008-0.487,4.557-0.717,5.339,0.172c0.232,0.263,0.676,0.944,0.344,2.526l6.775-0.115
		c0.156-0.838,0.303-2.189,0-3.789c-0.248-1.308-0.616-3.251-2.296-4.593c-1.822-1.455-4.028-1.278-4.65-1.206L49.422,135.69z"/>
	<path fill="#1C998B" d="M109.625,142.099c-3.067-5.208-8.656-8.831-13.488-9.034c-4.216-0.177-7.571,1.59-7.571,1.59
		c-0.549,0.289-2.176,1.232-2.176,1.232c-3.792,0-7.583,0-11.375,0l8.649,2.66c-0.615,0.648-1.433,1.596-2.241,2.843
		c-0.243,0.374-3.919,6.217-3.227,13.305c0.623,6.383,4.99,15.854,13.742,17.305c8.843,1.466,16.339-6.223,18.959-13.106
		C111.278,157.894,114.188,149.847,109.625,142.099z M95.12,166.656c-5.351,0.069-10.498-4.471-11.07-9.161
		c-0.121-0.991-0.024-1.872,0.127-2.577h-3.436l3.563-1.368c-0.016-0.372,0.806-7.914,6.108-12.979
		c4.957-4.736,14.592,3.893,15.142,13.615C105.857,159.556,102.666,166.559,95.12,166.656z"/>
	<path fill="none" stroke="#0D0D0D" stroke-miterlimit="10" d="M51.649,133.353H38.161l13.488,3.408
		c-0.936,0.338-2.228,0.908-3.585,1.878c-4.717,3.372-6.096,8.637-6.488,10.756c-1.534,8.286,3.495,14.478,4.098,15.196
		c1.059,1.261,4.203,4.894,9.561,5.976c5.442,1.098,13.267-0.416,16.22-6.317v-9.903v-3.073h-7.342l0.171,10.756
		c-0.394,0.311-0.964,0.702-1.707,1.024c-3.556,1.541-8.523,0.527-11.439-2.732c-2.252-2.517-2.521-5.518-2.561-6.659l-4.098-0.341
		l4.212-0.683c-0.097-0.757-0.161-1.821,0-3.073c0.109-0.85,0.386-2.824,1.764-4.894c0.446-0.67,1.883-2.665,4.553-3.87
		c1.05-0.474,2.066-0.639,4.098-0.968c2.982-0.483,4.517-0.711,5.293,0.171c0.23,0.261,0.671,0.936,0.341,2.504l6.716-0.114
		c0.154-0.831,0.301-2.169,0-3.756c-0.246-1.297-0.611-3.223-2.276-4.553c-1.806-1.443-3.993-1.267-4.61-1.195L51.649,133.353z"/>
	<path fill="none" stroke="#0D0D0D" stroke-miterlimit="10" d="M111.414,140.363c-3.138-5.329-8.857-9.037-13.801-9.244
		c-4.314-0.181-7.747,1.627-7.747,1.627c-0.562,0.296-2.227,1.26-2.227,1.26c-3.88,0-7.759,0-11.639,0l8.85,2.722
		c-0.63,0.663-1.466,1.633-2.293,2.909c-0.248,0.383-4.01,6.362-3.302,13.614c0.637,6.531,5.106,16.222,14.061,17.707
		c9.049,1.5,16.718-6.367,19.399-13.41C113.105,156.525,116.083,148.291,111.414,140.363z M96.571,165.491
		c-5.476,0.071-10.741-4.575-11.327-9.374c-0.124-1.014-0.025-1.915,0.13-2.637h-3.515l3.646-1.4
		c-0.016-0.381,0.825-8.098,6.249-13.28c5.072-4.846,14.931,3.983,15.493,13.931C107.558,158.225,104.293,165.391,96.571,165.491z"
		/>
	<path fill="none" stroke="#0D0D0D" stroke-miterlimit="10" d="M51.649,134.845H38.161l13.488,3.408
		c-0.936,0.339-2.228,0.908-3.585,1.878c-4.717,3.372-6.096,8.637-6.488,10.756c-1.534,8.286,3.495,14.478,4.098,15.196
		c1.059,1.261,4.203,4.894,9.561,5.976c5.442,1.098,13.267-0.416,16.22-6.317v-9.903v-3.073h-7.342l0.171,10.756
		c-0.394,0.311-0.964,0.702-1.707,1.024c-3.556,1.541-8.523,0.527-11.439-2.732c-2.252-2.517-2.521-5.518-2.561-6.659l-4.098-0.341
		l4.212-0.683c-0.097-0.757-0.161-1.821,0-3.073c0.109-0.85,0.386-2.824,1.764-4.894c0.446-0.67,1.883-2.665,4.553-3.87
		c1.05-0.474,2.066-0.639,4.098-0.968c2.982-0.483,4.517-0.711,5.293,0.171c0.23,0.261,0.671,0.936,0.341,2.504l6.716-0.114
		c0.154-0.831,0.301-2.169,0-3.756c-0.246-1.297-0.611-3.223-2.276-4.553c-1.806-1.443-3.993-1.267-4.61-1.195L51.649,134.845z"/>
	<path fill="none" stroke="#0D0D0D" stroke-miterlimit="10" d="M111.414,141.855c-3.138-5.329-8.857-9.037-13.801-9.244
		c-4.314-0.181-7.747,1.627-7.747,1.627c-0.562,0.296-2.227,1.26-2.227,1.26c-3.88,0-7.759,0-11.639,0l8.85,2.722
		c-0.63,0.663-1.466,1.633-2.293,2.909c-0.248,0.383-4.01,6.362-3.302,13.614c0.637,6.531,5.106,16.222,14.061,17.707
		c9.049,1.5,16.718-6.367,19.399-13.41C113.105,158.017,116.083,149.783,111.414,141.855z M96.571,166.983
		c-5.476,0.071-10.741-4.575-11.327-9.374c-0.124-1.014-0.025-1.915,0.13-2.637h-3.515l3.646-1.4
		c-0.016-0.381,0.825-8.098,6.249-13.28c5.072-4.846,14.931,3.983,15.493,13.931C107.558,159.717,104.293,166.883,96.571,166.983z"
		/>
</g>
</svg>
