<?xml version="1.0" encoding="utf-8"?>
<!-- Generator: Adobe Illustrator 22.1.0, SVG Export Plug-In . SVG Version: 6.00 Build 0)  -->
<svg version="1.1" id="Layer_1" xmlns="http://www.w3.org/2000/svg" xmlns:xlink="http://www.w3.org/1999/xlink" x="0px" y="0px"
	 viewBox="0 0 216 216" enable-background="new 0 0 216 216" xml:space="preserve">
<g>
	<path fill="#DDF1EF" d="M56.216,23.387l103.556-0.007c5.201,0,9.417,4.215,9.417,9.416l0.01,150.401
		c0,5.201-4.215,9.417-9.416,9.417L56.228,192.62c-5.201,0-9.417-4.215-9.417-9.416L46.8,32.804
		C46.8,27.603,51.016,23.387,56.216,23.387z"/>
	<g>
		<path fill="none" stroke="#1D998B" stroke-miterlimit="10" d="M134.146,83.597c-0.191,14.339-11.971,25.809-26.31,25.617
			c-14.339-0.191-25.809-11.971-25.617-26.31c0.096-7.202,3.316-12.514,4.339-14.033c4.772-7.086,13.206-11.825,21.971-11.584
			C121.243,57.636,134.348,68.455,134.146,83.597z"/>
		<path fill="none" stroke="#1D998B" stroke-miterlimit="10" d="M103.611,82.702"/>
		<path fill="none" stroke="#1D998B" stroke-miterlimit="10" d="M86.571,67.87c1.269,1.518,3.202,3.528,5.84,5.231
			c1.1,0.71,6.475,4.048,14.574,3.365c11.033-0.93,20.88-8.796,20.957-8.837l0,0"/>
		<path fill="none" stroke="#1D998B" stroke-miterlimit="10" d="M83.001,77.236c1.544,1.85,3.896,4.301,7.106,6.377
			c1.339,0.866,7.879,4.935,17.734,4.103c13.426-1.134,25.408-10.725,25.502-10.774l0,0"/>
		<path fill="none" stroke="#1D998B" stroke-miterlimit="10" d="M82.846,88.646c1.568,2.133,3.958,4.957,7.221,7.348
			c1.361,0.997,8.01,5.682,18.042,4.704c13.667-1.334,25.879-12.427,25.975-12.483l0,0"/>
		<path fill="none" stroke="#1D998B" stroke-miterlimit="10" d="M92.132,62.929c0.98,0.764,2.473,1.775,4.506,2.637
			c0.848,0.359,4.99,2.047,11.21,1.735c8.474-0.426,16.012-4.324,16.071-4.344l0,0"/>
		<path fill="none" stroke="#1D998B" stroke-miterlimit="10" d="M112.951,58.041c-0.519,2.477-1.121,5.863-1.519,9.924
			c-0.669,6.835-0.418,12.113-0.214,16.061c0.2,3.878,0.381,7.401,1.225,12.064c0.967,5.344,2.346,9.653,3.47,12.668"/>
		<path fill="none" stroke="#1D998B" stroke-miterlimit="10" d="M119.872,60.219c-0.574,2.152-1.239,5.093-1.671,8.621
			c-0.727,5.939-0.428,10.528-0.186,13.96c0.237,3.372,0.453,6.435,1.416,10.491c1.103,4.649,2.665,8.399,3.936,11.023"/>
		<path fill="none" stroke="#1D998B" stroke-miterlimit="10" d="M125.19,64.275c-0.568,1.694-1.224,4.009-1.646,6.787
			c-0.711,4.677-0.398,8.293-0.147,10.998c0.247,2.657,0.471,5.071,1.445,8.269c1.117,3.666,2.689,6.624,3.967,8.696"/>
		<path fill="none" stroke="#1D998B" stroke-miterlimit="10" d="M91.484,63.765c0.444,1.767,0.947,4.18,1.239,7.067
			c0.491,4.859,0.132,8.594-0.152,11.387c-0.279,2.744-0.532,5.237-1.447,8.523c-1.049,3.766-2.471,6.789-3.618,8.9"/>
		<path fill="none" stroke="#1D998B" stroke-miterlimit="10" d="M98.434,59.154c0.437,2.285,0.931,5.405,1.211,9.139
			c0.471,6.285,0.098,11.119-0.197,14.735c-0.289,3.552-0.552,6.778-1.48,11.033c-1.064,4.877-2.498,8.794-3.653,11.531"/>
		<path fill="none" stroke="#1D998B" stroke-miterlimit="10" d="M104.879,57.236c0.434,2.524,0.923,5.971,1.198,10.097
			c0.463,6.944,0.082,12.286-0.217,16.282c-0.294,3.925-0.562,7.49-1.496,12.194c-1.071,5.391-2.51,9.721-3.669,12.746"/>
	</g>
	<rect x="66.523" y="126.008" transform="matrix(1 -0.0042 0.0042 1 -0.5793 0.486)" fill="none" width="99.033" height="25.798"/>
	<text transform="matrix(1 -0.0042 0.0042 1 66.5148 137.0286)" fill="#1D998B" font-family="'Courier'" font-size="16.9234px">Passport</text>
	<line fill="none" stroke="#1D998B" stroke-miterlimit="10" x1="93.425" y1="42.71" x2="120.877" y2="42.595"/>
	
		<rect x="92.129" y="151.845" transform="matrix(1 -0.0042 0.0042 1 -0.6586 0.4469)" fill="none" stroke="#1D998B" stroke-miterlimit="10" width="29.031" height="12.041"/>
	<circle fill="none" stroke="#1D998B" stroke-miterlimit="10" cx="106.645" cy="157.866" r="4.379"/>
	<line fill="none" stroke="#1D998B" stroke-miterlimit="10" x1="92.13" y1="157.926" x2="121.161" y2="157.805"/>
	<line fill="none" stroke="#1D998B" stroke-miterlimit="10" x1="56.216" y1="23.387" x2="56.228" y2="192.62"/>
</g>
</svg>
