<?xml version="1.0" encoding="utf-8"?>
<!-- Generator: Adobe Illustrator 22.1.0, SVG Export Plug-In . SVG Version: 6.00 Build 0)  -->
<svg version="1.1" id="Layer_1" xmlns="http://www.w3.org/2000/svg" xmlns:xlink="http://www.w3.org/1999/xlink" x="0px" y="0px"
	 viewBox="0 0 216 216" enable-background="new 0 0 216 216" xml:space="preserve">
<g>
	<path fill="#FBD7AD" stroke="#1D998B" stroke-miterlimit="10" d="M10.662,97.733c-0.723-0.008-2.375,0.076-3.853,1.204
		c-0.953,0.727-2.463,2.368-1.927,3.371c0.503,0.942,2.495,0.74,2.648,0.723l193.851,0.03h9.151c0.203-0.603,0.471-1.687,0-2.664
		c-0.843-1.749-3.522-2.059-4.575-2.182c-6.798-0.788-64.834-0.037-67.667,0L10.662,97.733z"/>
	<rect x="4.771" y="103.332" fill="#D458A0" stroke="#1D998B" stroke-miterlimit="10" width="206.025" height="25.767"/>
	<circle fill="#DDF1EF" cx="30.826" cy="133.209" r="3.752"/>
	<circle fill="#DDF1EF" cx="54.735" cy="133.209" r="3.752"/>
	<circle fill="#DDF1EF" cx="162.344" cy="133.25" r="3.752"/>
	<circle fill="#DDF1EF" cx="186.373" cy="133.25" r="3.752"/>
	<rect x="21.837" y="130.722" fill="#1D998B" stroke="#DEF1EF" stroke-miterlimit="10" width="39.839" height="2.529"/>
	<rect x="153.583" y="130.763" fill="#1D998B" stroke="#DEF1EF" stroke-miterlimit="10" width="39.839" height="2.529"/>
	<rect x="73.032" y="129.521" fill="#1D998B" stroke="#DEF1EF" stroke-miterlimit="10" width="12.281" height="5.033"/>
	<rect x="103.098" y="129.672" fill="#1D998B" stroke="#DEF1EF" stroke-miterlimit="10" width="30.342" height="3.96"/>
	<path fill="#DEF1EF" stroke="#1D998B" stroke-miterlimit="10" d="M50.007,119.046h-1.27c-2.342,0-4.241-1.899-4.241-4.241v-1.27
		c0-2.342,1.899-4.241,4.241-4.241h1.27c2.342,0,4.241,1.899,4.241,4.241v1.27C54.249,117.147,52.35,119.046,50.007,119.046z"/>
	<path fill="#DEF1EF" stroke="#1D998B" stroke-miterlimit="10" d="M68.79,119.046h-1.27c-2.342,0-4.241-1.899-4.241-4.241v-1.27
		c0-2.342,1.899-4.241,4.241-4.241h1.27c2.342,0,4.241,1.899,4.241,4.241v1.27C73.032,117.147,71.132,119.046,68.79,119.046z"/>
	<path fill="#DEF1EF" stroke="#1D998B" stroke-miterlimit="10" d="M89.135,119.046h-1.27c-2.342,0-4.241-1.899-4.241-4.241v-1.27
		c0-2.342,1.899-4.241,4.241-4.241h1.27c2.342,0,4.241,1.899,4.241,4.241v1.27C93.378,117.147,91.478,119.046,89.135,119.046z"/>
	<path fill="#DEF1EF" stroke="#1D998B" stroke-miterlimit="10" d="M107.384,119.046h-1.27c-2.342,0-4.241-1.899-4.241-4.241v-1.27
		c0-2.342,1.899-4.241,4.241-4.241h1.27c2.342,0,4.241,1.899,4.241,4.241v1.27C111.626,117.147,109.727,119.046,107.384,119.046z"/>
	<path fill="#DEF1EF" stroke="#1D998B" stroke-miterlimit="10" d="M128.199,119.046h-1.27c-2.342,0-4.241-1.899-4.241-4.241v-1.27
		c0-2.342,1.899-4.241,4.241-4.241h1.27c2.342,0,4.241,1.899,4.241,4.241v1.27C132.441,117.147,130.542,119.046,128.199,119.046z"/>
	<path fill="#DEF1EF" stroke="#1D998B" stroke-miterlimit="10" d="M147.052,119.046h-1.27c-2.342,0-4.241-1.899-4.241-4.241v-1.27
		c0-2.342,1.899-4.241,4.241-4.241h1.27c2.342,0,4.241,1.899,4.241,4.241v1.27C151.295,117.147,149.395,119.046,147.052,119.046z"/>
	<path fill="#DEF1EF" stroke="#1D998B" stroke-miterlimit="10" d="M167.369,119.046h-1.27c-2.342,0-4.241-1.899-4.241-4.241v-1.27
		c0-2.342,1.899-4.241,4.241-4.241h1.27c2.342,0,4.241,1.899,4.241,4.241v1.27C171.611,117.147,169.712,119.046,167.369,119.046z"/>
	<rect x="185.008" y="109.293" fill="#DEF1EF" stroke="#1D998B" stroke-miterlimit="10" width="5.755" height="9.752"/>
	<rect x="7.532" y="107.426" fill="#1D998B" stroke="#DEF1EF" stroke-miterlimit="10" width="9.15" height="20.469"/>
	<rect x="199.188" y="107.426" fill="#1D998B" stroke="#DEF1EF" stroke-miterlimit="10" width="9.15" height="20.469"/>
	<path fill="none" stroke="#DDF1EF" stroke-width="2" stroke-miterlimit="10" d="M13.825,118.953h-3.436
		c-0.547,0-0.995-0.448-0.995-0.995v-7.578c0-0.547,0.448-0.995,0.995-0.995h3.436c0.547,0,0.995,0.448,0.995,0.995v7.578
		C14.82,118.505,14.373,118.953,13.825,118.953z"/>
	<path fill="none" stroke="#DDF1EF" stroke-width="2" stroke-miterlimit="10" d="M205.482,118.953h-3.436
		c-0.547,0-0.995-0.448-0.995-0.995v-7.578c0-0.547,0.448-0.995,0.995-0.995h3.436c0.547,0,0.995,0.448,0.995,0.995v7.578
		C206.476,118.505,206.029,118.953,205.482,118.953z"/>
</g>
</svg>
